<?xml version="1.0"?>
<svg xmlns="http://www.w3.org/2000/svg" id="Layer_1" enable-background="new 0 0 512 512" height="512px" viewBox="0 0 512 512" width="512px"><g><link xmlns="" type="text/css" id="dark-mode" rel="stylesheet" class="active-path"/><style xmlns="" type="text/css" id="dark-mode-custom-style" class="active-path"/><path d="m507.606 290.805-138.342-138.436v-48.832l74.876-31.568c5.728-2.415 9.374-8.114 9.168-14.33-.207-6.216-4.223-11.661-10.098-13.69l-73.946-25.545v-3.394c0-8.29-6.716-15.01-15-15.01s-15 6.72-15 15.01v137.05l-119.38 119.075-80.567-80.621c-5.857-5.862-15.355-5.862-21.213 0l-113.71 113.786c-2.814 2.815-4.394 6.633-4.394 10.613v181.774h.008c0 1.93.363 3.875 1.128 5.729 2.316 5.614 7.785 9.278 13.854 9.282l482 .302h.01c3.977 0 7.79-1.58 10.604-4.393 2.814-2.815 4.396-6.634 4.396-10.617v-195.572c0-3.981-1.58-7.799-4.394-10.613zm-153.507-111.156 68.687 68.733-19.81 13.964-39.661-27.956c-5.18-3.652-12.097-3.651-17.276 0l-39.654 27.955-20.62-14.536zm42.28-120.12-27.115 11.432v-20.799zm-355.382 250.597 31.835 22.442c5.226 3.683 12.209 3.649 17.398-.086l38.699-27.859 33.865 23.454-132.794 132.455v-139.401zm87.713-87.771 69.927 69.972-14.239 14.203-47.099-32.62c-5.217-3.614-12.145-3.551-17.296.158l-38.623 27.804-18.853-13.29zm353.29 259.616-430.727-.271 179.175-178.717c.009-.009.018-.016.027-.024.008-.008.015-.017.022-.025l33.696-33.61 33.552 23.652c5.182 3.652 12.098 3.652 17.277 0l39.655-27.955 39.66 27.956c2.59 1.826 5.614 2.739 8.638 2.739s6.048-.913 8.639-2.739l32.702-23.051 37.684 37.71z" data-original="#000000" class="active-path" fill="#C2C2C2"/></g> </svg>
